<?xml version="1.0" encoding="utf-8"?>
<!-- Generator: Adobe Illustrator 18.1.0, SVG Export Plug-In . SVG Version: 6.00 Build 0)  -->
<svg version="1.1" width="150" id="Calque_1" xmlns="http://www.w3.org/2000/svg" xmlns:xlink="http://www.w3.org/1999/xlink" x="0px" y="0px"
	 viewBox="0 0 980.4 174.4" enable-background="new 0 0 980.4 174.4" xml:space="preserve">
<g id="Lettres">
	<polygon fill="#FFFFFF" points="49.8,12.4 38.9,37.7 55.3,37.7 0.3,165.6 101.1,165.6 111.8,140.6 63.7,140.6 118.9,12.4 	"/>
	<path fill="#FFFFFF" d="M183.4,12.4h-47.2l-10.9,25.3h16.2c0,0-8.2,19.9-14.3,33.4C161.2,63,178.9,36.5,183.4,12.4z"/>
	<polygon fill="#FFFFFF" points="261.1,37.7 309.4,37.7 320.3,12.4 272.2,12.4 277.4,0.3 247.2,0.3 242,12.4 204.6,12.4 193.7,37.7 
		210.1,37.7 155.1,165.6 254.4,165.6 265.3,140.3 217.2,140.3 235.7,96.9 284.2,96.9 293.5,75.1 245.2,75.1 	"/>
	<path fill="#FFFFFF" d="M392,12.4c-50.2,0.4-71.6,35.7-83.2,60.6c-33.4,71,19.6,92,31.7,94.2c6.9,1.2,20.8,1.2,27.7,0l4.4,7.5h26
		l-8.8-13.5c19.5-1.2,42.4-28,52.5-49.3C452.5,90.5,482,14,392,12.4z M410.3,53.6l-34.7,81l-7.6-12.5l-19.3,10.6l4.7,7.2
		c-16.6,0-14-13.9-9.9-21.7l30.4-70.6c3.5-8,10.9-11.5,18.1-11.8C403.5,35.2,414.6,42.9,410.3,53.6z"/>
	<path fill="#FFFFFF" d="M590.5,12.4l-49.6,115.5c-8.6,17.1-47.3,15.6-36.4-6.3l46.9-109.2h-65.7l-10.9,25.3h16.3l-32,74.4
		c-12.9,28.1,6.3,54,47.7,54.3c42.7,0.3,56.4-26.2,60.9-37.2l50.2-116.8H590.5L590.5,12.4z"/>
	<polygon fill="#FFFFFF" points="635.2,12.4 624.3,37.7 640.6,37.7 585.7,165.6 636.1,165.6 701.9,12.4 	"/>
	<path fill="#FFFFFF" d="M840.4,69c8.1-20.7,2.6-56.5-29.5-56.5h-28.1h-63.5l-10.9,25.3h16.4l-54.9,127.8h49.4l23-53.3h50.4
		C815.9,112.3,832.6,89.1,840.4,69z M791.9,67.3c-2.3,4.5-8.7,19.5-18.3,19.5h-20.5l21-49.1h14.8C801.5,37.7,794.1,62.9,791.9,67.3z
		"/>
	<polygon fill="#FFFFFF" points="853.2,37.7 869.6,37.7 814.6,165.6 913.9,165.6 924.7,140.3 876.6,140.3 895.1,96.9 943.6,96.9 
		953,75.1 904.7,75.1 920.6,37.7 968.8,37.7 979.7,12.4 864,12.4 	"/>
</g>
</svg>
