<?xml version="1.0" encoding="utf-8"?>
<!-- Generator: Adobe Illustrator 18.1.0, SVG Export Plug-In . SVG Version: 6.00 Build 0)  -->
<svg version="1.1" width="150" id="Calque_1" xmlns="http://www.w3.org/2000/svg" xmlns:xlink="http://www.w3.org/1999/xlink" x="0px" y="0px"
	 viewBox="0 0 975 335" enable-background="new 0 0 975 335" xml:space="preserve">
<g>
	<path fill="#FFFFFF" d="M229.8,56c-14.2,0-26.9,9.7-29.9,23.2h-43.4v19.4c-3-1.5-6.7-3-10.5-3V63.4c13.5-3.7,23.2-15.7,23.2-29.9
		c0-17.2-14.2-31.4-31.4-31.4s-31.4,14.2-31.4,31.4c0,14.2,9.7,26.9,23.2,30.7v32.2c-12,2.2-22.4,9.7-28.4,19.4H63
		c-3.7-12.7-15.7-22.4-29.9-22.4c-17.2,0-31.4,14.2-31.4,31.4c0,17.2,14.2,31.4,31.4,31.4c14.2,0,26.9-9.7,30.7-23.2h30.7
		c-0.7,2.2-0.7,5.2-0.7,7.5c0,4.5,0.7,8.2,1.5,12.7h-27v84.5c-13.5,3.7-23.2,15.7-23.2,29.9c0,17.2,14.2,31.4,31.4,31.4
		s31.4-14.2,31.4-31.4c0-14.2-9.7-26.9-23.2-29.9v-68.1h20.2c8.2,9,20.2,15,32.9,15c13.5,0,24.7-6,32.9-15h29.2v26.2
		c-13.5,3.7-23.2,15.7-23.2,29.9c0,17.2,14.2,31.4,31.4,31.4s31.4-14.2,31.4-31.4c0-14.2-9.7-26.2-23.2-29.9v-42.6h-35.9
		c1.5-3.7,1.5-8.2,1.5-12.7c0-9.7-3-18.7-9-26.2V97.8h26.2c3.7,13.5,15.7,23.2,29.9,23.2c17.2,0,31.4-14.2,31.4-31.4
		C261.2,70.2,247,56,229.8,56z M33.1,137.6c-8.2,0-15-6.7-15-15c0-8.2,6.7-15,15-15s15,6.7,15,15C48.1,130.8,40.6,137.6,33.1,137.6z
		 M91.5,266.2c0,8.2-6.7,15-15,15s-15-6.7-15-15s6.7-15,15-15C84.7,251.2,91.5,258,91.5,266.2z M223.1,224.3c0,8.2-6.7,15-15,15
		c-8.2,0-15-6.7-15-15s6.7-15,15-15C216.4,209.4,223.1,216.1,223.1,224.3z M122.9,32.8c0-8.2,6.7-15,15-15c8.2,0,15,6.7,15,15
		c0,8.2-6.7,15-15,15C129.6,47.1,122.9,40.3,122.9,32.8z M137.8,167.5c-15.7,0-29.2-12.7-29.2-29.2c0-15.7,12.7-29.2,29.2-29.2
		c15.7,0,29.2,12.7,29.2,29.2S153.5,167.5,137.8,167.5z M229.8,102.4c-8.2,0-15-6.7-15-15c0-8.2,6.7-15,15-15s15,6.7,15,15
		C244.8,95.7,238.1,102.4,229.8,102.4z"/>
	<g>
		<path fill="#FFFFFF" d="M33.1,100.2c0.7,0,1.5,0,2.2,0V31.4h80c0-6.7,3-12.7,8.2-16.5H18.9v90.5C21.9,102.4,27.1,100.2,33.1,100.2
			z"/>
		<path fill="#FFFFFF" d="M53.3,266.2v-0.7H34.6V145.8c-0.7,0-1.5,0-2.2,0c-6,0-10.5-2.2-15-5.2v140.6h41.9
			C55.6,277.4,53.3,272.2,53.3,266.2z"/>
		<path fill="#FFFFFF" d="M152.8,14.9c4.5,3.7,8.2,9.7,8.2,16.5h107.7v233.4h-169v0.7c0,6-2.2,12-6,15.7h191.5V14.9H152.8z"/>
	</g>
	<g>
		<path fill="#FFFFFF" d="M449.7,145.8c-3.7-8.2-9-15-15.7-21.7c-6.7-6-15-11.2-23.2-14.2c-9-3.7-18.7-5.2-28.4-5.2
			c-0.7,0-3.7,0-4.5,0c-6.7,0-13.5,0.7-19.4,2.2V59.8h-29.9v176.5h29.9V131.6c6-2.2,12.7-3.7,19.4-3.7c12.7,0,24.7,4.5,34.4,12.7
			c9,8.2,14.2,19.4,14.2,30.7v65.1h29.9v-65.1C455.7,162.2,453.5,154,449.7,145.8z"/>
		<polygon fill="#FFFFFF" points="558.2,87.4 581.4,59.8 549.2,59.8 534.2,87.4 		"/>
		<polygon fill="#FFFFFF" points="743.7,106.1 743.7,129.3 769.8,129.3 769.8,236.3 799.8,236.3 799.8,106.1 		"/>
		<ellipse fill="#FFFFFF" cx="784.1" cy="74" rx="17.2" ry="15"/>
		<path fill="#FFFFFF" d="M728.7,236.3v-22.4H716c-15,0-26.9-12-26.9-25.4l0,0v-59.1h39.6v-23.2h-39.6V59.8h-29.9v130.9l0,0
			c0.7,25.4,23.9,46.4,53.1,46.4h16.5L728.7,236.3L728.7,236.3z"/>
		<path fill="#FFFFFF" d="M508.1,159.2c5.2-18.7,23.9-32.9,46.4-32.9s41.1,14.2,46.4,32.9H508.1z M625.5,236.3v-22.4h-71.1
			c-21.7,0-40.4-13.5-46.4-32.2h121.2c0.7-3.7,1.5-8.2,1.5-12c0-37.4-33.7-67.3-75.5-67.3c-41.9,0-75.5,29.9-75.5,67.3
			c0,36.6,33.7,66.6,75.5,66.6L625.5,236.3L625.5,236.3z"/>
		<path fill="#FFFFFF" d="M961.3,236.3v-22.4H903c-26.9,0-47.9-20.2-47.9-44.1c0-23.9,21.7-43.4,47.9-43.4
			c14.2,0,26.9,5.2,35.9,14.2l20.2-16.5c-14.2-13.5-33.7-21.7-56.1-21.7c-41.9,0-75.5,29.9-75.5,67.3c0,36.6,33.7,66.6,75.5,66.6
			H961.3z"/>
	</g>
	<g>
		<path fill="#FFFFFF" d="M327.8,309.6v-35.2h5.2v30.7h17.2v4.5H327.8L327.8,309.6z"/>
		<path fill="#FFFFFF" d="M354,302.1c0-2.2,0.7-3.7,2.2-5.2s3.7-2.2,6.7-2.2h6.7v-1.5c0-1.5-0.7-3-1.5-3.7c-0.7-0.7-2.2-1.5-4.5-1.5
			c-1.5,0-2.2,0-3,0.7c-0.7,0-1.5,0.7-2.2,2.2l-3.7-3c1.5-1.5,2.2-2.2,3.7-3c1.5-0.7,3-0.7,5.2-0.7c6.7,0,10.5,3,10.5,9v16.5h-5.2
			v-2.2c-0.7,0.7-2.2,1.5-3,2.2c-0.7,0.7-2.2,0.7-3.7,0.7c-3,0-5.2-0.7-6.7-2.2C354,305.8,354,304.3,354,302.1z M358.5,302.1
			c0,2.2,1.5,3.7,4.5,3.7c2.2,0,3.7-0.7,4.5-1.5c0.7-0.7,0.7-2.2,0.7-3.7v-2.2h-6C360,298.4,358.5,299.9,358.5,302.1z"/>
		<path fill="#FFFFFF" d="M393.6,302.8c0-1.5-0.7-3.7-0.7-6c0-2.2,0-4.5,0.7-6s1.5-3,2.2-4.5c1.5-1.5,3.7-2.2,6-2.2
			c3,0,5.2,0.7,6.7,3v-3h5.2v24.7c0,3-0.7,6-3,7.5c-2.2,2.2-4.5,3-7.5,3c-2.2,0-3.7,0-5.2-0.7s-3-1.5-3.7-2.2l3-3
			c1.5,1.5,3.7,2.2,5.2,2.2c2.2,0,3.7-0.7,4.5-1.5c0.7-1.5,1.5-3,1.5-4.5v-3c-1.5,2.2-3.7,3-6.7,3l0,0c-2.2,0-4.5-0.7-6-2.2
			C394.4,305.8,393.6,304.3,393.6,302.8z M398.1,293.9c0,0.7,0,1.5,0,3c0,0.7,0,2.2,0,3c0,0.7,0,1.5,0.7,2.2c0,0.7,0.7,1.5,1.5,1.5
			c0.7,0.7,1.5,0.7,3,0.7c0.7,0,2.2,0,3-0.7c0.7-0.7,1.5-0.7,1.5-1.5s0.7-1.5,0.7-2.2s0-1.5,0-3s0-2.2,0-3c0-0.7,0-1.5-0.7-2.2
			c0-0.7-0.7-1.5-1.5-1.5c-0.7-0.7-1.5-0.7-3-0.7c-0.7,0-2.2,0-3,0.7s-1.5,0.7-1.5,1.5C398.1,291.6,398.1,292.4,398.1,293.9z"/>
		<path fill="#FFFFFF" d="M421.3,309.6v-25.4h5.2v3c0.7-0.7,1.5-1.5,3-2.2s2.2-0.7,3.7-0.7c2.2,0,4.5,0.7,6,2.2l-4.5,3.7
			c-0.7-0.7-2.2-1.5-3.7-1.5l0,0c-1.5,0-2.2,0.7-3.7,1.5c-0.7,0.7-1.5,2.2-1.5,3.7v15h-4.5V309.6z"/>
		<path fill="#FFFFFF" d="M440.7,302.1c0-2.2,0.7-3.7,2.2-5.2s3.7-2.2,6.7-2.2h6.7v-1.5c0-1.5-0.7-3-1.5-3.7
			c-0.7-0.7-2.2-1.5-4.5-1.5c-1.5,0-2.2,0-3,0.7c-0.7,0-1.5,0.7-2.2,2.2l-3.7-3c1.5-1.5,2.2-2.2,3.7-3c1.5-0.7,3-0.7,5.2-0.7
			c6.7,0,10.5,3,10.5,9v16.5h-5.2v-2.2c-0.7,0.7-2.2,1.5-3,2.2c-0.7,0.7-2.2,0.7-3.7,0.7c-3,0-5.2-0.7-6.7-2.2
			C441.5,305.8,440.7,304.3,440.7,302.1z M446,302.1c0,2.2,1.5,3.7,4.5,3.7c2.2,0,3.7-0.7,4.5-1.5c0.7-0.7,0.7-2.2,0.7-3.7v-2.2h-6
			C447.5,298.4,446,299.9,446,302.1z"/>
		<path fill="#FFFFFF" d="M469.2,309.6v-25.4h5.2v2.2c1.5-2.2,3.7-3,6.7-3c2.2,0,4.5,0.7,6,2.2s2.2,3.7,2.2,6.7V308h-5.2v-15
			c0-2.2-0.7-3-1.5-4.5c-0.7-1.5-2.2-1.5-3.7-1.5s-3,0.7-3.7,1.5c-0.7,0.7-1.5,2.2-1.5,4.5v15h-4.5V309.6z"/>
		<path fill="#FFFFFF" d="M496.1,296.9c0-5.2,0.7-9,3-10.5c1.5-1.5,3.7-2.2,6-2.2c3,0,5.2,0.7,6.7,3v-12.7h5.2v35.2h-5.2v-3
			c-1.5,2.2-3.7,3-6.7,3c-2.2,0-4.5-0.7-6-2.2C496.8,305.8,496.1,302.1,496.1,296.9L496.1,296.9z M501.3,296.9c0,1.5,0,2.2,0,3
			c0,0.7,0,1.5,0.7,2.2c0,0.7,0.7,1.5,1.5,2.2c0.7,0.7,1.5,0.7,3,0.7c0.7,0,2.2,0,3-0.7c0.7-0.7,1.5-0.7,1.5-2.2
			c0-0.7,0.7-1.5,0.7-2.2s0-2.2,0-3c0-0.7,0-2.2,0-3c0-0.7,0-1.5-0.7-2.2c0-0.7-0.7-1.5-1.5-2.2c-0.7-0.7-1.5-0.7-3-0.7
			s-2.2,0.7-3.7,1.5c-0.7,0.7-1.5,1.5-1.5,3C501.3,293.9,501.3,295.4,501.3,296.9z"/>
		<path fill="#FFFFFF" d="M523,296.9c0-3.7,0.7-7.5,3-9.7c2.2-2.2,4.5-3.7,7.5-3.7s6,0.7,7.5,3c2.2,2.2,3,5.2,3,9v2.2h-16.5
			c0,2.2,0.7,3.7,1.5,5.2c0.7,1.5,3,2.2,4.5,2.2s2.2,0,3-0.7s1.5-0.7,3-2.2l3,3c-1.5,1.5-3,2.2-4.5,3c-1.5,0.7-3,0.7-5.2,0.7
			c-3.7,0-6-0.7-8.2-3C524.5,304.3,523,301.4,523,296.9z M528.3,294.6h11.2c0-1.5,0-2.2-0.7-3c-0.7-2.2-2.2-3-5.2-3
			c-1.5,0-2.2,0-3,0.7s-1.5,1.5-2.2,2.2C528.3,292.4,528.3,293.9,528.3,294.6z"/>
		<path fill="#FFFFFF" d="M561.9,296.9c0-3.7,0.7-7.5,3-9.7s4.5-3.7,7.5-3.7s6,0.7,7.5,3c2.2,2.2,3,5.2,3,9v2.2h-16.5
			c0,2.2,0.7,3.7,1.5,5.2c0.7,1.5,3,2.2,4.5,2.2s2.2,0,3-0.7c0.7-0.7,1.5-0.7,3-2.2l3,3c-1.5,1.5-3,2.2-4.5,3
			c-1.5,0.7-3,0.7-5.2,0.7c-3.7,0-6-0.7-8.2-3C563.4,304.3,561.9,301.4,561.9,296.9z M567.2,294.6h11.2c0-1.5,0-2.2-0.7-3
			c-0.7-2.2-2.2-3-5.2-3c-1.5,0-2.2,0-3,0.7c-0.7,0.7-1.5,1.5-2.2,2.2C567.2,292.4,567.2,293.9,567.2,294.6z M570.1,279.7l3.7-8.2
			h5.2l-5.2,8.2H570.1z"/>
		<path fill="#FFFFFF" d="M589.6,302.8c-0.7-1.5-0.7-3.7-0.7-6c0-2.2,0-4.5,0.7-6s1.5-3,2.2-3.7s2.2-1.5,3.7-2.2s3-0.7,4.5-0.7
			c3,0,6,1.5,8.2,3.7l-3.7,3c-0.7-0.7-1.5-1.5-2.2-1.5s-1.5-0.7-2.2-0.7c-2.2,0-3.7,0.7-4.5,2.2c-0.7,1.5-1.5,3-1.5,6s0.7,5.2,1.5,6
			c1.5,1.5,3,2.2,4.5,2.2c0.7,0,1.5,0,2.2-0.7c0.7,0,1.5-0.7,2.2-1.5l3.7,3c-2.2,2.2-5.2,3.7-8.2,3.7c-1.5,0-3,0-4.5-0.7
			s-2.2-1.5-3.7-2.2C591.1,305.8,590.3,304.3,589.6,302.8z"/>
		<path fill="#FFFFFF" d="M612,296.9c0-2.2,0-4.5,0.7-6s1.5-3,2.2-3.7c2.2-2.2,4.5-3,7.5-3s5.2,0.7,7.5,3c1.5,1.5,2.2,2.2,2.2,3.7
			c0.7,1.5,0.7,3.7,0.7,6c0,4.5-0.7,8.2-3,9.7c-2.2,2.2-4.5,3-7.5,3s-5.2-0.7-7.5-3C613.5,305.1,612,301.4,612,296.9z M618.8,303.6
			c0.7,0.7,2.2,1.5,3.7,1.5s3-0.7,3.7-1.5c1.5-1.5,1.5-3.7,1.5-6.7s-0.7-6-1.5-6.7c-0.7-0.7-2.2-1.5-3.7-1.5s-3,0.7-3.7,1.5
			c-1.5,1.5-1.5,3.7-1.5,6.7C617.3,300.6,618,302.8,618.8,303.6z"/>
		<path fill="#FFFFFF" d="M639.7,302.8v-28.4h5.2v27.7c0,0.7,0,1.5,0.7,2.2s0.7,0.7,2.2,0.7h2.2v4.5h-3c-2.2,0-3.7-0.7-5.2-2.2
			C640.5,305.8,639.7,304.3,639.7,302.8z"/>
		<path fill="#FFFFFF" d="M653.2,296.9c0-3.7,0.7-7.5,3-9.7c2.2-2.2,4.5-3.7,7.5-3.7s6,0.7,7.5,3c2.2,2.2,3,5.2,3,9v2.2h-16.5
			c0,2.2,0.7,3.7,1.5,5.2c0.7,1.5,3,2.2,4.5,2.2s2.2,0,3-0.7s1.5-0.7,3-2.2l3,3c-1.5,1.5-3,2.2-4.5,3c-1.5,0.7-3,0.7-5.2,0.7
			c-3.7,0-6-0.7-8.2-3C653.9,304.3,653.2,301.4,653.2,296.9z M658.4,294.6h11.2c0-1.5,0-2.2-0.7-3c-0.7-2.2-2.2-3-5.2-3
			c-1.5,0-2.2,0-3,0.7c-0.7,0.7-1.5,1.5-1.5,2.2C658.4,292.4,658.4,293.9,658.4,294.6z"/>
		<path fill="#FFFFFF" d="M692.1,296.9c0-5.2,0.7-9,3-10.5c1.5-1.5,3.7-2.2,6-2.2c3,0,5.2,0.7,6.7,3v-12.7h5.2v35.2h-5.2v-3
			c-1.5,2.2-3.7,3-6.7,3c-2.2,0-4.5-0.7-6-2.2C692.8,305.8,692.1,302.1,692.1,296.9L692.1,296.9z M697.3,296.9c0,1.5,0,2.2,0,3
			c0,0.7,0,1.5,0.7,2.2c0,0.7,0.7,1.5,1.5,2.2c0.7,0.7,1.5,0.7,3,0.7c0.7,0,2.2,0,3-0.7c0.7-0.7,1.5-0.7,1.5-2.2
			c0-0.7,0.7-1.5,0.7-2.2s0-2.2,0-3c0-0.7,0-2.2,0-3c0-0.7,0-1.5-0.7-2.2c0-0.7-0.7-1.5-1.5-2.2c-0.7-0.7-1.5-0.7-3-0.7
			s-2.2,0.7-3.7,1.5c-0.7,0.7-1.5,1.5-1.5,3C697.3,293.9,697.3,295.4,697.3,296.9z"/>
		<path fill="#FFFFFF" d="M719.7,296.9c0-3.7,0.7-7.5,3-9.7c2.2-2.2,4.5-3.7,7.5-3.7s6,0.7,7.5,3c2.2,2.2,3,5.2,3,9v2.2h-16.5
			c0,2.2,0.7,3.7,1.5,5.2c0.7,1.5,3,2.2,4.5,2.2s2.2,0,3-0.7s1.5-0.7,3-2.2l3,3c-1.5,1.5-3,2.2-4.5,3c-1.5,0.7-3,0.7-5.2,0.7
			c-3.7,0-6-0.7-8.2-3C720.5,304.3,719.7,301.4,719.7,296.9z M724.2,294.6h11.2c0-1.5,0-2.2-0.7-3c-0.7-2.2-2.2-3-5.2-3
			c-1.5,0-2.2,0-3,0.7s-1.5,1.5-2.2,2.2C725,292.4,724.2,293.9,724.2,294.6z"/>
		<path fill="#FFFFFF" d="M759.4,302.8v-28.4h5.2v27.7c0,0.7,0,1.5,0.7,2.2s0.7,0.7,2.2,0.7h2.2v4.5h-3c-2.2,0-3.7-0.7-5.2-2.2
			C760.1,305.8,759.4,304.3,759.4,302.8z"/>
		<path fill="#FFFFFF" d="M772.1,284.2v-9.7h5.2v5.2L772.1,284.2z"/>
		<path fill="#FFFFFF" d="M786.3,309.6v-35.2h5.2v35.2H786.3z"/>
		<path fill="#FFFFFF" d="M799.8,309.6v-25.4h5.2v2.2c1.5-2.2,3.7-3,6.7-3c2.2,0,4.5,0.7,6,2.2s2.2,3.7,2.2,6.7V308h-5.2v-15
			c0-2.2-0.7-3-1.5-4.5c-0.7-0.7-2.2-1.5-3.7-1.5s-3,0.7-3.7,1.5c-0.7,0.7-1.5,2.2-1.5,4.5v15h-4.5V309.6z"/>
		<path fill="#FFFFFF" d="M825.9,288.6v-3.7h3v-8.2h5.2v8.2h4.5v3.7h-4.5v13.5c0,2.2,0.7,3,3,3h2.2v4.5h-3c-2.2,0-3.7-0.7-5.2-2.2
			s-1.5-3-1.5-5.2v-13.5L825.9,288.6L825.9,288.6z"/>
		<path fill="#FFFFFF" d="M843.9,296.9c0-3.7,0.7-7.5,3-9.7s4.5-3.7,7.5-3.7s6,0.7,7.5,3c2.2,2.2,3,5.2,3,9v2.2h-16.5
			c0,2.2,0.7,3.7,1.5,5.2c0.7,1.5,3,2.2,4.5,2.2s2.2,0,3-0.7c0.7-0.7,1.5-0.7,3-2.2l3,3c-1.5,1.5-3,2.2-4.5,3
			c-1.5,0.7-3,0.7-5.2,0.7c-3.7,0-6-0.7-8.2-3C844.6,304.3,843.9,301.4,843.9,296.9z M849.1,294.6h11.2c0-1.5,0-2.2-0.7-3
			c-0.7-2.2-2.2-3-5.2-3c-1.5,0-2.2,0-3,0.7c-0.7,0.7-1.5,1.5-2.2,2.2C849.1,292.4,849.1,293.9,849.1,294.6z"/>
		<path fill="#FFFFFF" d="M871.6,309.6v-25.4h5.2v3c0.7-0.7,1.5-1.5,3-2.2s2.2-0.7,3.7-0.7c2.2,0,4.5,0.7,6,2.2l-3.7,3.7
			c-0.7-0.7-2.2-1.5-3.7-1.5l0,0c-1.5,0-2.2,0.7-3.7,1.5c-0.7,0.7-1.5,2.2-1.5,3.7v15h-5.2L871.6,309.6L871.6,309.6z"/>
		<path fill="#FFFFFF" d="M894,309.6v-25.4h5.2v2.2c1.5-2.2,3.7-3,6.7-3c2.2,0,4.5,0.7,6,2.2s2.2,3.7,2.2,6.7V308H909v-15
			c0-2.2-0.7-3-1.5-4.5c-0.7-0.7-2.2-1.5-3.7-1.5s-3,0.7-3.7,1.5c-0.7,0.7-1.5,2.2-1.5,4.5v15H894V309.6z"/>
		<path fill="#FFFFFF" d="M920.9,296.9c0-3.7,0.7-7.5,3-9.7c2.2-2.2,4.5-3.7,7.5-3.7s6,0.7,7.5,3c2.2,2.2,3,5.2,3,9v2.2h-16.5
			c0,2.2,0.7,3.7,1.5,5.2c0.7,1.5,3,2.2,4.5,2.2s2.2,0,3-0.7s1.5-0.7,3-2.2l3,3c-1.5,1.5-3,2.2-4.5,3c-1.5,0.7-3,0.7-5.2,0.7
			c-3.7,0-6-0.7-8.2-3C921.7,304.3,920.9,301.4,920.9,296.9z M925.4,294.6h11.2c0-1.5,0-2.2-0.7-3c-0.7-2.2-2.2-3-5.2-3
			c-1.5,0-2.2,0-3,0.7s-1.5,1.5-2.2,2.2C926.2,292.4,925.4,293.9,925.4,294.6z"/>
		<path fill="#FFFFFF" d="M946.4,288.6v-3.7h3v-8.2h5.2v8.2h4.5v3.7h-4.5v13.5c0,2.2,0.7,3,3,3h2.2v4.5h-3c-2.2,0-3.7-0.7-5.2-2.2
			s-1.5-3-1.5-5.2v-13.5L946.4,288.6L946.4,288.6z"/>
	</g>
	<rect x="328.6" y="262.5" fill="none" width="645.5" height="71.1"/>
</g>
</svg>
