<?xml version="1.0" encoding="utf-8"?>
<!-- Generator: Adobe Illustrator 18.1.0, SVG Export Plug-In . SVG Version: 6.00 Build 0)  -->
<svg version="1.1" width="250" id="Calque_1" xmlns="http://www.w3.org/2000/svg" xmlns:xlink="http://www.w3.org/1999/xlink" x="0px" y="0px"
	 viewBox="0 0 985 250" enable-background="new 0 0 985 250" xml:space="preserve">
<text transform="matrix(1 0 0 1 2.8447 191.1318)" fill="#FFFFFF" font-family="'Helvetica'" font-size="115.673">ChampsélyséesED</text>
<g>
	<g>
		<path fill="#E63821" d="M10.2,230l-6-9h6l3,5l3-5h5.5l-6,8.5l6.5,9.5h-5l-4-5.5l-4,5.5H3.7L10.2,230z"/>
		<path fill="#FFFFFF" d="M46.2,228.5H28.7v-4h17.5V228.5z M46.2,236H28.7v-4h17.5V236z"/>
		<path fill="#FFFFFF" d="M59.7,218.5h-5v-4h5V218.5z M54.7,221h5v18h-5V221z"/>
		<path fill="#FFFFFF" d="M63.2,221h4.5v2.5l0,0c1.5-2,3.5-3,5.5-3c5.5,0,6.5,3,6.5,7.5v11h-5v-10c0-3-1-4.5-3-4.5c-2.5,0-4,1.5-4,5
			v9.5h-5C63.2,239.5,63.2,221,63.2,221z"/>
		<path fill="#FFFFFF" d="M96.2,237L96.2,237c-1.5,2-3,3-5.5,3c-5.5,0-8-4.5-8-9.5s2.5-9.5,8-9.5c2,0,4.5,1,5.5,2.5l0,0l0,0v-9h5v25
			h-4.5L96.2,237L96.2,237z M91.7,224.5c-3,0-4.5,3-4.5,5.5c0,3,1.5,6,4.5,6c3.5,0,4.5-3,4.5-6C96.2,227.5,94.7,224.5,91.7,224.5z"
			/>
		<path fill="#FFFFFF" d="M107.7,231.5c0,3,1.5,4.5,4.5,4.5c2,0,3.5-1.5,4-2.5h4.5c-1.5,4.5-4.5,6-8.5,6c-5.5,0-9.5-4-9.5-9.5
			s4-9.5,9.5-9.5c6,0,9,5,9,11H107.7L107.7,231.5z M116.2,228.5c-0.5-2.5-1.5-4-4-4c-3,0-4,2.5-4,4H116.2z"/>
		<path fill="#FFFFFF" d="M123.2,221h4.5v2.5l0,0c1-2,3-3,5.5-3c5.5,0,8.5,4.5,8.5,10c0,5-2.5,9.5-8,9.5c-2,0-4.5-1-5.5-3l0,0v8.5
			h-5V221L123.2,221z M136.7,230.5c0-3-1-6-4.5-6c-3,0-4.5,3-4.5,6s1,5.5,4.5,5.5S136.7,233,136.7,230.5z"/>
		<path fill="#FFFFFF" d="M148.2,231.5c0,3,1.5,4.5,4.5,4.5c2,0,3.5-1.5,4-2.5h4.5c-1.5,4.5-4.5,6-8.5,6c-5.5,0-9.5-4-9.5-9.5
			s4-9.5,9.5-9.5c6,0,9,5,9,11H148.2L148.2,231.5z M156.2,228.5c-0.5-2.5-1.5-4-4-4c-3,0-4,2.5-4,4H156.2z"/>
		<path fill="#FFFFFF" d="M163.2,221h4.5v2.5l0,0c1.5-2,3.5-3,5.5-3c5.5,0,6.5,3,6.5,7.5v11h-5v-10c0-3-1-4.5-3-4.5
			c-2.5,0-4,1.5-4,5v9.5h-5L163.2,221L163.2,221z"/>
		<path fill="#FFFFFF" d="M196.2,237L196.2,237c-1.5,2-3,3-5.5,3c-5.5,0-8-4.5-8-9.5s2.5-9.5,8-9.5c2,0,4.5,1,5.5,2.5l0,0l0,0v-9h5
			v25h-4.5L196.2,237L196.2,237z M192.2,224.5c-3,0-4.5,3-4.5,5.5c0,3,1.5,6,4.5,6c3.5,0,4.5-3,4.5-6
			C196.2,227.5,195.2,224.5,192.2,224.5z"/>
		<path fill="#FFFFFF" d="M208.2,231.5c0,3,1.5,4.5,4.5,4.5c2,0,3.5-1.5,4-2.5h4.5c-1.5,4.5-4.5,6-8.5,6c-5.5,0-9.5-4-9.5-9.5
			s4-9.5,9.5-9.5c6,0,9,5,9,11H208.2L208.2,231.5z M216.2,228.5c-0.5-2.5-1.5-4-4-4c-3,0-4,2.5-4,4H216.2z"/>
		<path fill="#FFFFFF" d="M223.7,221h4.5v2.5l0,0c1.5-2,3.5-3,5.5-3c5.5,0,6.5,3,6.5,7.5v11h-5v-10c0-3-1-4.5-3-4.5
			c-2.5,0-4,1.5-4,5v9.5h-5v-18H223.7z"/>
		<path fill="#FFFFFF" d="M250.2,221h3.5v3.5h-3.5v9c0,1.5,0.5,2,2,2c0.5,0,1,0,1.5,0v4c-1,0-2,0-3,0c-3,0-5.5-0.5-5.5-4.5v-10.5h-3
			V221h3v-5.5h5V221z"/>
		<path fill="#FFFFFF" d="M255.7,214.5h5v25h-5V214.5z"/>
		<path fill="#FFFFFF" d="M272.7,241.5c-1,3-3,4-6,4c-1,0-2,0-3,0v-4c1,0,2,0,3,0c1.5,0,2.5-2,1.5-3.5l-6.5-17h5.5l4,12.5l0,0
			l4-12.5h5L272.7,241.5z"/>
		<path fill="#FFFFFF" d="M298.7,220.5c5.5,0,9.5,4,9.5,9.5c0,5.5-3.5,9.5-9.5,9.5c-5.5,0-9.5-4-9.5-9.5
			C289.7,224.5,293.2,220.5,298.7,220.5z M298.7,236c3.5,0,4.5-3,4.5-5.5c0-3-1-6-4.5-6s-4.5,3-4.5,6C294.7,233,295.7,236,298.7,236
			z"/>
		<path fill="#FFFFFF" d="M310.2,221h4.5v3.5l0,0c1-2.5,3.5-4,5.5-4c0.5,0,1,0,1,0v4.5c-0.5,0-1,0-2,0c-3.5,0-5,2.5-5,6v8h-5v-18
			H310.2z"/>
		<path fill="#FFFFFF" d="M340.7,238c0,3-1,8-9.5,8c-3.5,0-7.5-1.5-8-6h5c0.5,2,2,2.5,3.5,2.5c3,0,4-2,4-4.5v-2l0,0c-1,2-3,3-5.5,3
			c-5.5,0-7.5-4-7.5-9c0-4.5,2.5-9,8-9c2.5,0,4,1,5.5,3l0,0v-2.5h4.5V238L340.7,238z M335.7,230c0-3-1-5.5-4.5-5.5c-3,0-4,2.5-4,5
			s1,5.5,4,5.5S335.7,232.5,335.7,230z"/>
		<path fill="#FFFFFF" d="M343.2,227c0.5-4.5,4.5-6,8.5-6c3.5,0,8,1,8,5v9.5c0,1.5,0,3.5,0.5,4h-5c0-0.5-0.5-1-0.5-1.5
			c-1.5,1.5-4,2-6,2c-3.5,0-6-1.5-6-5.5c0-4,3-5,6-5.5c3-0.5,6-0.5,6-2.5s-1.5-2.5-3-2.5c-2,0-3,1-3.5,3
			C348.2,227,343.2,227,343.2,227z M354.7,230.5c-1,0.5-2.5,1-4,1c-1.5,0.5-3,1-3,2.5c0,2,1.5,2.5,3,2.5c4,0,4-3,4-4V230.5z"/>
		<path fill="#FFFFFF" d="M362.7,221h4.5v2.5l0,0c1.5-2,3.5-3,5.5-3c5.5,0,6.5,3,6.5,7.5v11h-5v-10c0-3-1-4.5-3-4.5
			c-2.5,0-4,1.5-4,5v9.5h-5L362.7,221L362.7,221z"/>
		<path fill="#FFFFFF" d="M387.2,218.5h-5v-4h5V218.5z M382.2,221h5v18h-5V221z"/>
		<path fill="#FFFFFF" d="M389.2,235.5l9.5-10.5h-8.5v-4h15v4l-9.5,10.5h10v4h-16.5L389.2,235.5L389.2,235.5z"/>
		<path fill="#FFFFFF" d="M411.7,231.5c0,3,1.5,4.5,4.5,4.5c2,0,3.5-1.5,4-2.5h4.5c-1.5,4.5-4.5,6-8.5,6c-5.5,0-9.5-4-9.5-9.5
			s4-9.5,9.5-9.5c6,0,9,5,9,11H411.7L411.7,231.5z M420.2,228.5c-0.5-2.5-1.5-4-4-4c-3,0-4,2.5-4,4H420.2z"/>
		<path fill="#FFFFFF" d="M440.2,237L440.2,237c-1.5,2-3,3-5.5,3c-5.5,0-8-4.5-8-9.5s2.5-9.5,8-9.5c2,0,4.5,1,5.5,2.5l0,0l0,0v-9h5
			v25h-5V237L440.2,237z M435.7,224.5c-3,0-4.5,3-4.5,5.5c0,3,1.5,6,4.5,6c3.5,0,4.5-3,4.5-6C440.2,227.5,438.7,224.5,435.7,224.5z"
			/>
		<path fill="#FFFFFF" d="M463.2,219h-7.5v-4.5h20.5v4.5h-7.5v20.5h-5.5V219z"/>
		<path fill="#FFFFFF" d="M478.2,214.5h18.5v4.5h-13v5.5h12v4.5h-12v6h13.5v4.5h-19L478.2,214.5L478.2,214.5z"/>
		<path fill="#FFFFFF" d="M499.7,214.5h11c6.5,0,11.5,4,11.5,12.5c0,7-3.5,12.5-11.5,12.5h-11V214.5z M505.2,234.5h5c3,0,6-2,6-7.5
			c0-5-1.5-8.5-7-8.5h-4L505.2,234.5L505.2,234.5z"/>
		<path fill="#FFFFFF" d="M537.2,231.5c0,3,1.5,4.5,4.5,4.5c2,0,3.5-1.5,4-2.5h4.5c-1.5,4.5-4.5,6-8.5,6c-5.5,0-9.5-4-9.5-9.5
			s4-9.5,9.5-9.5c6,0,9,5,9,11H537.2L537.2,231.5z M545.7,228.5c-0.5-2.5-1.5-4-4-4c-3,0-4,2.5-4,4H545.7z"/>
		<path fill="#FFFFFF" d="M562.2,239.5h-5.5l-6.5-18.5h5l4,12.5l0,0l4-12.5h5L562.2,239.5z"/>
		<path fill="#FFFFFF" d="M572.7,231.5c0,3,1.5,4.5,4.5,4.5c2,0,3.5-1.5,4-2.5h4.5c-1.5,4.5-4.5,6-8.5,6c-5.5,0-9.5-4-9.5-9.5
			s4-9.5,9.5-9.5c6,0,9,5,9,11H572.7L572.7,231.5z M581.2,228.5c-0.5-2.5-1.5-4-4-4c-3,0-4,2.5-4,4H581.2z"/>
		<path fill="#FFFFFF" d="M588.2,221h4.5v2.5l0,0c1.5-2,3.5-3,5.5-3c5.5,0,6.5,3,6.5,7.5v11h-5v-10c0-3-1-4.5-3-4.5
			c-2.5,0-4,1.5-4,5v9.5h-5L588.2,221L588.2,221z"/>
		<path fill="#FFFFFF" d="M614.8,221h3.5v3.5h-3.5v9c0,1.5,0.5,2,2,2c0.5,0,1,0,1.5,0v4c-1,0-2,0-3,0c-3,0-5.5-0.5-5.5-4.5v-10.5h-3
			V221h3v-5.5h5V221L614.8,221z"/>
	</g>
</g>
<g>
	<g>
		<path fill="#E63821" d="M25.2,25h-23V3.5h72.5V25H51.2v62h-26V25z"/>
		<path fill="#E63821" d="M78.2,3.5h70V25h-44.5v10.5h44.5v20h-44.5V66h44.5v21.5h-70V3.5z"/>
		<path fill="#E63821" d="M152.7,3.5h42.5c28,0,37.5,20.5,37.5,41.5c0,25.5-13.5,42-42.5,42h-37V3.5H152.7z M178.7,65.5h10
			c16,0,18.5-13,18.5-21c0-5.5-1.5-20-20-20h-8C178.7,25,178.7,65.5,178.7,65.5z"/>
	</g>
	<g>
		<g>
			<path fill="#E63821" d="M269.7,54.5l-8-13l-7.5,13h-19l18-26l-17-25h19l7,12.5l7-12.5h19l-17,25l18,26
				C288.2,54.5,269.7,54.5,269.7,54.5z"/>
		</g>
	</g>
</g>
</svg>
